<svg width="510" height="245" viewBox="0 0 510 245" fill="none" xmlns="http://www.w3.org/2000/svg">
<g clip-path="url(#clip0_433_102)">
<path d="M169.285 245C166.96 237.324 164.319 229.434 161.36 221.332C158.612 213.229 155.865 205.126 153.117 197.023H67.5238C64.7764 205.126 61.9233 213.229 58.9645 221.332C56.217 229.434 53.6809 237.324 51.3561 245H0C8.24234 221.118 16.062 199.049 23.459 178.792C30.856 158.536 38.0416 139.452 45.0159 121.54C52.2015 103.629 59.1758 86.6775 65.9388 70.6854C72.9131 54.48 80.0987 38.701 87.4957 23.3486H134.731C141.916 38.701 148.996 54.48 155.971 70.6854C162.945 86.6775 169.919 103.629 176.893 121.54C184.079 139.452 191.37 158.536 198.767 178.792C206.164 199.049 213.984 221.118 222.226 245H169.285ZM110.004 73.564C108.947 76.7624 107.362 81.1336 105.248 86.6775C103.135 92.2215 100.705 98.6184 97.9571 105.868C95.2097 113.118 92.1452 121.114 88.7637 129.856C85.5936 138.599 82.3178 147.768 78.9363 157.363H141.388C138.006 147.768 134.731 138.599 131.561 129.856C128.39 121.114 125.326 113.118 122.367 105.868C119.62 98.6184 117.189 92.2215 115.076 86.6775C112.962 81.1336 111.272 76.7624 110.004 73.564Z" fill="#F1CB4E"/>
<path d="M294.728 235C294.728 240.523 290.251 245 284.728 245H257.493C251.97 245 247.493 240.523 247.493 235V86.7624C247.493 81.2395 251.97 76.7624 257.493 76.7624H284.728C290.251 76.7624 294.728 81.2396 294.728 86.7624V235ZM299.166 28.1462C299.166 36.8886 296.313 43.8185 290.607 48.936C285.112 53.8403 278.561 56.2924 270.952 56.2924C263.344 56.2924 256.687 53.8403 250.98 48.936C245.485 43.8185 242.738 36.8886 242.738 28.1462C242.738 19.4038 245.485 12.5805 250.98 7.67624C256.687 2.55875 263.344 0 270.952 0C278.561 0 285.112 2.55875 290.607 7.67624C296.313 12.5805 299.166 19.4038 299.166 28.1462Z" fill="white"/>
<path d="M408.239 20.7898C440.997 20.7898 466.146 26.6536 483.688 38.3812C501.229 49.8956 510 68.8729 510 95.3133C510 121.967 501.124 141.264 483.371 153.205C465.618 164.933 440.257 170.796 407.288 170.796H391.754V245H342.3V26.547C353.078 24.4147 364.491 22.9221 376.537 22.0692C388.584 21.2163 399.151 20.7898 408.239 20.7898ZM411.409 63.329C407.816 63.329 404.223 63.4356 400.63 63.6488C397.249 63.862 394.29 64.0753 391.754 64.2885V128.257H407.288C424.406 128.257 437.298 125.912 445.963 121.221C454.628 116.53 458.961 107.787 458.961 94.9935C458.961 88.8098 457.799 83.6923 455.474 79.641C453.36 75.5897 450.19 72.3912 445.963 70.0457C441.948 67.4869 436.981 65.7811 431.064 64.9282C425.146 63.8621 418.595 63.329 411.409 63.329Z" fill="#655C9F"/>
<path d="M49.5037 242.5H3.50886C11.3268 219.9 18.7596 198.95 25.8073 179.65C33.1973 159.412 40.3751 140.349 47.3408 122.46C54.5187 104.568 61.4846 87.6366 68.2386 71.6656C74.9842 55.992 81.9271 40.7197 89.0674 25.8486H133.14C140.083 40.7227 146.928 55.9977 153.674 71.6737L153.679 71.6847C160.639 87.6435 167.6 104.564 174.564 122.448L174.568 122.459L174.573 122.471C181.748 140.356 189.03 159.415 196.419 179.65C203.467 198.95 210.899 219.9 218.717 242.5H171.136C168.933 235.346 166.46 228.013 163.718 220.502L159.606 208.375L155.485 196.221L154.91 194.523H153.117H67.5238H65.7317L65.1562 196.221C62.415 204.305 59.5683 212.389 56.6161 220.474L56.6062 220.501L56.5969 220.529C54.0524 228.033 51.688 235.357 49.5037 242.5ZM112.328 72.6426L109.79 66.2416L107.63 72.7797C106.59 75.9255 105.021 80.2562 102.912 85.787C100.798 91.3329 98.3672 97.7313 95.6193 104.982C92.8743 112.226 89.8119 120.216 86.4321 128.955L86.4225 128.979L86.4135 129.004C83.2405 137.754 79.9622 146.93 76.5784 156.532L75.4046 159.863H78.9363H141.388H144.92L143.746 156.532C140.362 146.93 137.084 137.754 133.911 129.004C130.736 120.248 127.663 112.23 124.694 104.953C121.95 97.7141 119.523 91.3254 117.412 85.787C115.297 80.239 113.602 75.856 112.328 72.6426ZM252.645 9.5414L252.65 9.53741C257.901 4.82787 263.965 2.5 270.952 2.5C277.938 2.5 283.878 4.82545 288.903 9.50571L288.94 9.5397L288.978 9.57221C294.039 13.9225 296.666 20.0017 296.666 28.1462C296.666 36.2872 294.039 42.4982 288.941 47.0721C283.921 51.5521 277.968 53.7924 270.952 53.7924C263.951 53.7924 257.887 51.5607 252.648 47.0728C247.769 42.51 245.238 36.2991 245.238 28.1462C245.238 19.9704 247.781 13.8823 252.645 9.5414ZM482.298 40.4595L482.307 40.4654L482.316 40.4712C498.968 51.4019 507.5 69.4668 507.5 95.3133C507.5 121.363 498.868 139.765 481.983 151.126C464.807 162.468 440.01 168.296 407.288 168.296H391.754H389.254V170.796V242.5H344.8V28.6098C354.873 26.706 365.511 25.3562 376.714 24.5629C388.72 23.7129 399.225 23.2898 408.239 23.2898C440.755 23.2898 465.338 29.12 482.298 40.4595ZM400.482 61.1532L400.473 61.1538C397.08 61.3678 394.103 61.5822 391.545 61.7973L389.254 61.9899V64.2885V128.257V130.757H391.754H407.288C424.556 130.757 437.945 128.404 447.154 123.419C456.872 118.158 461.461 108.386 461.461 94.9935C461.461 88.5308 460.251 82.9656 457.667 78.4401C455.325 73.9717 451.824 70.4537 447.243 67.8966C442.884 65.1347 437.597 63.3489 431.464 62.4601C425.387 61.3682 418.698 60.829 411.409 60.829C407.767 60.829 404.124 60.9371 400.482 61.1532ZM284.728 242.5H257.493C253.351 242.5 249.993 239.142 249.993 235V86.7624C249.993 82.6203 253.351 79.2624 257.493 79.2624H284.728C288.87 79.2624 292.228 82.6203 292.228 86.7624V235C292.228 239.142 288.87 242.5 284.728 242.5Z" stroke="#1F1F1F" stroke-width="5"/>
</g>
<defs>
<clipPath id="clip0_433_102">
<rect width="510" height="245" fill="white"/>
</clipPath>
</defs>
</svg>
