<svg width="510" height="245" viewBox="0 0 510 245" fill="none" xmlns="http://www.w3.org/2000/svg">
<g clip-path="url(#clip0_433_102)">
<path d="M169.285 245C166.96 237.324 164.319 229.434 161.36 221.332C158.612 213.229 155.865 205.126 153.117 197.024H67.5238C64.7764 205.126 61.9233 213.229 58.9645 221.332C56.217 229.434 53.6809 237.324 51.3561 245H0C8.24235 221.118 16.062 199.049 23.459 178.792C30.856 158.536 38.0416 139.452 45.0159 121.54C52.2015 103.629 59.1758 86.6775 65.9388 70.6854C72.9131 54.48 80.0987 38.701 87.4957 23.3486H134.731C141.916 38.701 148.996 54.48 155.971 70.6854C162.945 86.6775 169.919 103.629 176.893 121.54C184.079 139.452 191.37 158.536 198.767 178.792C206.164 199.049 213.984 221.118 222.226 245H169.285ZM110.004 73.564C108.947 76.7624 107.362 81.1336 105.248 86.6775C103.135 92.2215 100.705 98.6184 97.9571 105.868C95.2097 113.118 92.1452 121.114 88.7637 129.856C85.5936 138.599 82.3178 147.768 78.9363 157.363H141.388C138.006 147.768 134.731 138.599 131.56 129.856C128.39 121.114 125.326 113.118 122.367 105.868C119.62 98.6184 117.189 92.2215 115.076 86.6775C112.962 81.1336 111.272 76.7624 110.004 73.564Z" fill="#F1CB4E"/>
<path d="M294.728 245H247.493V76.7624H294.728V245ZM299.166 28.1462C299.166 36.8886 296.313 43.8185 290.607 48.936C285.112 53.8403 278.561 56.2924 270.952 56.2924C263.344 56.2924 256.687 53.8403 250.98 48.936C245.485 43.8185 242.738 36.8886 242.738 28.1462C242.738 19.4038 245.485 12.5805 250.98 7.67624C256.687 2.55875 263.344 0 270.952 0C278.561 0 285.112 2.55875 290.607 7.67624C296.313 12.5805 299.166 19.4038 299.166 28.1462Z" fill="white"/>
<path d="M408.239 20.7898C440.997 20.7898 466.147 26.6536 483.688 38.3812C501.229 49.8956 510 68.8729 510 95.3133C510 121.967 501.124 141.264 483.371 153.205C465.618 164.933 440.257 170.796 407.288 170.796H391.754V245H342.3V26.547C353.078 24.4147 364.491 22.9221 376.537 22.0692C388.584 21.2163 399.151 20.7898 408.239 20.7898ZM411.409 63.329C407.816 63.329 404.223 63.4356 400.63 63.6488C397.249 63.862 394.29 64.0753 391.754 64.2885V128.257H407.288C424.406 128.257 437.298 125.912 445.963 121.221C454.628 116.53 458.961 107.787 458.961 94.9935C458.961 88.8098 457.799 83.6923 455.474 79.641C453.36 75.5896 450.19 72.3912 445.963 70.0457C441.948 67.4869 436.981 65.7811 431.064 64.9282C425.146 63.8621 418.595 63.329 411.409 63.329Z" fill="#655C9F"/>
<path d="M50.6146 244H1.40323C9.47576 220.632 17.1408 199.01 24.3983 179.135C31.7925 158.886 38.975 139.811 45.9458 121.908C53.1283 104.005 60.0992 87.0615 66.8585 71.0779C73.7413 55.0851 80.8299 39.5087 88.1241 24.3486H134.094C141.183 39.5098 148.169 55.0871 155.052 71.0807L155.054 71.0851C162.022 87.0639 168.992 104.003 175.962 121.903L175.965 121.913C183.147 139.813 190.434 158.887 197.828 179.135C205.086 199.01 212.751 220.632 220.823 244H170.026C167.75 236.532 165.175 228.865 162.303 221L158.186 208.856L154.064 196.702L153.834 196.023H153.117H67.5238H66.807L66.5768 196.702C63.8318 204.798 60.9813 212.893 58.0251 220.989L58.0212 220.999L58.0174 221.01C55.3513 228.873 52.8837 236.536 50.6146 244ZM110.933 73.1954L109.918 70.635L109.054 73.2503C108.004 76.4276 106.425 80.7826 104.314 86.3213C102.2 91.8661 99.7696 98.2635 97.022 105.514C94.2755 112.761 91.2119 120.755 87.831 129.496L87.8272 129.506L87.8236 129.516C84.6524 138.261 81.3755 147.433 77.9931 157.031L77.5236 158.363H78.9363H141.388H142.801L142.331 157.031C138.949 147.433 135.672 138.261 132.501 129.516C129.329 120.768 126.261 112.763 123.298 105.502C120.552 98.2567 118.123 91.8631 116.01 86.3213C113.896 80.7757 112.204 76.3998 110.933 73.1954ZM251.646 8.4223L251.648 8.4207C257.172 3.4664 263.592 1 270.952 1C278.311 1 284.618 3.46543 289.926 8.40803L289.94 8.42162L289.955 8.43463C295.404 13.1173 298.166 19.643 298.166 28.1462C298.166 36.6487 295.403 43.2914 289.939 48.1916C284.635 52.9254 278.323 55.2924 270.952 55.2924C263.587 55.2924 257.167 52.9284 251.647 48.1906C246.399 43.2951 243.738 36.653 243.738 28.1462C243.738 19.6305 246.404 13.1012 251.646 8.4223ZM483.132 39.2126L483.139 39.2172C500.325 50.4981 509 69.1105 509 95.3133C509 121.725 500.221 140.665 482.816 152.373C465.294 163.947 440.158 169.796 407.288 169.796H391.754H390.754V170.796V244H343.3V27.37C353.797 25.3306 364.899 23.8957 376.608 23.0667C388.638 22.2149 399.181 21.7898 408.239 21.7898C440.9 21.7898 465.823 27.6402 483.132 39.2126ZM400.571 62.6506L400.568 62.6508C397.181 62.8643 394.215 63.0781 391.67 63.292L390.754 63.3691V64.2885V128.257V129.257H391.754H407.288C424.466 129.257 437.557 126.909 446.439 122.1C455.526 117.181 459.961 108.027 459.961 94.9935C459.961 88.6985 458.78 83.4018 456.351 79.1605C454.146 74.9423 450.843 71.6161 446.475 69.1861C442.322 66.5459 437.227 64.8082 431.224 63.941C425.242 62.8645 418.636 62.329 411.409 62.329C407.796 62.329 404.184 62.4362 400.571 62.6506ZM293.728 244H248.493V77.7624H293.728V244Z" stroke="#1F1F1F" stroke-width="2"/>
</g>
<defs>
<clipPath id="clip0_433_102">
<rect width="510" height="245" fill="white"/>
</clipPath>
</defs>
</svg>
